<?xml version="1.0" encoding="UTF-8" standalone="no"?>
<!DOCTYPE svg PUBLIC "-//W3C//DTD SVG 1.1//EN" "http://www.w3.org/Graphics/SVG/1.1/DTD/svg11.dtd">
<svg width="100%" height="100%" viewBox="0 0 850 152" version="1.1" xmlns="http://www.w3.org/2000/svg" xmlns:xlink="http://www.w3.org/1999/xlink" xml:space="preserve" xmlns:serif="http://www.serif.com/" style="fill-rule:evenodd;clip-rule:evenodd;stroke-linejoin:round;stroke-miterlimit:2;">
    <g transform="matrix(1,0,0,1,128.595,-5.19806)">
        <text x="151.297px" y="115.15px" style="font-family:'ComicSansMS-Bold', 'Comic Sans MS', cursive;font-weight:700;font-size:136.023px;">Grappler</text>
    </g>
    <g transform="matrix(0.529436,0,0,0.583064,17.7135,4.2785)">
        <path d="M262.797,0.563C259.117,0.462 254.031,2.188 249.172,5.755C246.93,7.403 244.754,9.071 242.828,10.684C239.613,13.376 237.082,15.911 236.055,17.927C235.625,18.77 235.207,19.669 234.844,20.579C233.574,19.122 231.855,17.524 229.875,15.864C227.945,14.251 225.77,12.583 223.527,10.934C217.547,6.548 211.227,4.938 207.601,6.11C203.976,7.278 198.871,8.563 198.871,8.563C198.871,8.563 191.094,16.735 189.52,18.755C187.945,20.774 186.395,32.481 185.633,33.688C185.383,34.091 185.211,34.974 185.09,35.966L179.332,35.841C179.332,35.841 169.242,27.626 159.711,26.13C150.18,24.634 96.746,22.016 87.59,23.888C78.434,25.755 73.645,28.177 73.645,28.177C48.215,34.431 24.484,60.63 40.879,88.434C54.363,108.091 48.043,133.684 64.66,157.145C41.816,167.474 33.789,171.548 19.746,193.763C19.746,193.763 8.637,203.809 3.352,212.794C-1.934,221.778 10.227,227.063 20.797,233.407C31.367,239.751 39.297,248.212 45.109,247.153C50.926,246.099 52.508,245.563 59.379,242.391C66.25,239.22 63.078,236.052 60.961,235.524C58.848,234.993 44.586,228.649 43.527,223.891C42.469,219.134 35.598,211.204 41.41,201.161C47.227,191.118 71.539,184.099 76.824,180.927C82.109,177.759 96.91,170.36 97.438,166.661C97.969,162.962 95.324,110.634 95.324,110.634L123.336,123.317C123.336,123.317 122.273,127.013 122.273,131.766C122.273,136.524 127.039,139.169 127.039,139.169C127.039,139.169 122.809,149.208 123.336,157.665C123.867,166.122 123.328,171.938 123.859,179.864C124.387,187.794 120.691,203.649 119.105,213.161C117.52,222.677 111.711,226.376 119.637,227.962C127.566,229.548 138.656,223.735 147.641,226.376C156.625,229.02 161.391,227.966 171.434,226.907C181.477,225.852 179.363,220.036 175.133,217.395C170.906,214.751 158.742,216.341 149.758,208.942C140.77,201.544 140.777,197.317 141.305,188.86C141.832,180.403 150.289,155.563 150.289,155.563C150.289,155.563 165.512,161.423 170.371,161.61C175.23,161.794 176.914,161.602 178.223,163.286C179.527,164.966 184.758,172.067 186.625,172.626C189.195,173.985 192.512,175.618 194.801,177.645C197.457,179.997 199.051,182.872 201.562,186.466C201.938,188.52 204.371,188.895 204.558,187.774C204.734,186.727 203.344,180.942 202.801,178.407C203.281,178.927 203.812,179.595 204.375,180.477C206.988,184.587 206.43,186.087 207.551,186.837C208.676,187.583 210.352,183.657 210.352,183.657C210.352,183.657 212.289,181.224 212.848,179.54C213.41,177.86 211.66,168.513 211.473,167.02C211.285,165.524 203.25,160.481 203.25,159.735C203.25,158.989 205.238,158.673 207.851,157.364C210.469,156.056 212.082,156.313 213.473,156.313C214.863,156.313 214.523,152.724 206.801,153.759C203.445,154.208 196.34,154.501 193.91,154.13C191.48,153.755 186.625,154.876 185.504,154.13C184.383,153.38 154.672,135.071 154.484,134.321C154.297,133.575 160.09,123.294 159.34,117.501C158.594,111.708 152.242,106.852 152.242,106.852C152.242,106.852 152.43,99.005 155.422,96.575C158.41,94.145 160.832,94.516 160.832,94.516C160.832,94.516 162.145,105.727 162.52,111.895C162.895,118.059 166.074,123.302 171.492,122.368C173.547,122.013 175.516,121.552 177.461,121.052C179.098,121.134 180.469,121.192 180.746,121.102C183.812,120.091 203.074,116.313 209.766,112.45C215.535,109.118 222.871,104.95 225.488,103.794C226.035,103.782 226.586,103.778 227.152,103.774C228.324,104.579 230.039,106.759 231.945,107.364C234.328,108.122 238.523,107.438 239.855,107.61C241.191,107.782 241.781,107.813 243.75,109.013C245.715,110.216 250.062,113.259 252.336,114.184C254.609,115.11 254.613,113.665 254.363,113.138C254.117,112.606 248.773,107.806 247.941,107.247C247.113,106.688 246.559,105.72 246.559,105.72C246.559,105.72 247.199,104.942 247.895,105.169C248.586,105.391 253.496,107.61 256.656,109.372C259.816,111.13 261.793,110.888 262.074,110.474C262.352,110.059 262.43,109.388 261.574,108.688C260.715,107.993 259.141,106.567 259.141,106.567C259.141,106.567 262.891,106.915 264.223,107.087C265.555,107.259 265.469,105.759 262.031,103.692C258.598,101.626 255.938,99.474 255.938,99.474C255.938,99.474 260.477,99.384 263.059,98.95C265.645,98.516 261.48,96.075 260.148,95.907C258.812,95.735 246.027,92.692 242.977,92.212C239.922,91.727 229.695,92.22 224.695,92.841C219.695,93.462 207.121,98.165 197.176,99.325C196.594,99.391 196.023,99.474 195.457,99.563C189.348,99.825 182.695,99.755 182.695,99.755C182.695,99.755 180.457,83.309 180.082,79.196C179.77,75.739 182.094,74.134 183.062,72.04C184.555,70.462 185.773,68.942 186.191,67.641C186.242,67.493 186.328,67.294 186.445,67.056C187.625,66.341 188.523,65.876 188.523,65.876C188.523,65.876 198.727,62.704 199.266,62.938C199.809,63.169 203.754,67.618 204.801,68.595C205.847,69.575 208.047,70.001 209.113,69.559C210.176,69.122 211.184,66.669 211.883,65.77L215.004,63.86C215.641,63.27 215.812,61.431 215.812,61.431C215.812,61.431 216.551,61.641 217.18,61.763C217.809,61.884 219.445,59.552 219.445,59.552C219.445,59.552 222.473,60.075 223.176,59.177C223.875,58.282 225.516,51.302 226.039,50.63C226.566,49.954 228.496,49.102 229.188,48.911C229.875,48.724 230.98,45.45 231.77,44.442C232.555,43.431 235.359,37.516 235.359,37.516C235.359,37.516 237.074,36.138 238.199,34.11C239.09,35.938 240.418,38.602 240.934,39.263C241.719,40.27 242.824,43.544 243.516,43.735C244.203,43.923 246.137,44.774 246.66,45.45C247.184,46.122 248.828,53.102 249.527,53.997C250.227,54.895 253.254,54.372 253.254,54.372C253.254,54.372 254.891,56.704 255.52,56.583C256.148,56.462 256.891,56.251 256.891,56.251C256.891,56.251 257.059,58.091 257.695,58.681L260.816,60.591C261.516,61.489 262.523,63.942 263.59,64.384C264.652,64.821 266.852,64.391 267.898,63.415C268.945,62.438 272.895,57.989 273.434,57.759C273.648,57.665 275.398,58.114 277.422,58.684C275.949,64.099 274.441,71.317 275.754,74.712C277.996,80.505 283.047,86.114 283.234,87.985C283.422,89.852 284.723,106.102 285.098,110.587C285.469,115.071 271.836,132.833 271.836,132.833C271.836,132.833 263.238,134.693 259.5,133.571C257.816,133.067 255.387,132.036 254.086,131.661C249.938,129.263 249.59,131.122 252.062,133.977C252.727,134.739 253.426,135.419 253.707,135.63C254.453,136.188 246.609,135.634 244.18,136.38C241.75,137.13 237.637,141.614 236.328,143.294C235.023,144.977 236.52,146.661 238.203,145.352C239.883,144.044 243.613,141.79 243.613,141.79C243.613,141.79 244.312,141.896 245.199,142.013C242.172,144.13 238.133,147.852 236.895,149.087C235.215,150.77 235.395,152.454 236.516,152.266C237.637,152.079 245.512,148.837 245.512,148.837L249.23,149.036C249.23,149.036 248.18,152.032 246.871,152.778C244.91,153.962 233.449,154.626 236.777,158.325C236.777,158.325 225.895,161.716 223.652,164.145C222.586,165.446 221.008,165.977 220.145,166.755C218.098,168.591 219.152,171.052 221.047,169.724C222.148,168.95 225.375,167.493 226.988,166.649C228.855,165.716 233.336,165.341 233.336,165.341C233.336,165.341 224.938,170.341 223.254,172.243C219.648,176.321 220.859,179.028 224.93,175.806C226.602,174.481 231.473,170.946 233.715,170.2C235.961,169.45 238.387,168.891 238.387,168.891C238.387,168.891 231.449,175.169 229.23,178.235C226.301,182.286 229.863,183.173 233.359,179.044C234.383,177.833 240.25,173.747 240.25,173.747C240.25,173.747 238.59,178.036 238.215,181.77C237.84,185.509 238.129,188.52 239.625,186.649C241.121,184.782 241.34,180.763 242.086,179.829C242.836,178.895 245.672,175.251 245.672,175.251C245.672,175.251 255.02,170.575 256.703,167.587C258.383,164.595 258.941,162.731 261.371,161.423C263.801,160.114 283.797,150.212 289.965,145.352C296.129,140.493 298,135.63 298,135.63L316.684,120.681C316.684,120.681 315.75,130.216 321.355,143.294C326.961,156.376 337.613,181.411 338.359,182.903C339.109,184.399 341.352,193.376 341.727,197.298C342.098,201.224 339.48,207.384 338.73,210.376C337.984,213.364 329.578,221.958 327.898,222.145C326.215,222.333 314.441,223.454 309.586,225.509C304.727,227.563 305.848,236.352 313.133,236.352C320.422,236.352 359.289,235.423 363.59,235.048C367.887,234.673 372.738,231.677 371.059,225.325C369.375,218.97 363.77,201.595 363.023,199.911C362.273,198.231 360.965,198.235 360.965,198.235C360.965,198.235 358.172,167.774 357.797,162.731C357.734,161.899 357.695,161.157 357.668,160.442C359.008,164.528 362.426,168.251 369.195,171.888C379.285,177.306 422.078,196.364 422.078,196.364C422.078,196.364 425.812,203.278 428.426,204.212C431.043,205.145 437.215,208.134 437.215,208.134C437.215,208.134 439.082,212.251 439.457,217.856C439.832,223.462 438.703,231.122 437.582,232.989C436.461,234.86 429.922,238.032 427.305,239.153C424.688,240.274 427.113,244.942 427.676,246.251C428.234,247.559 446.176,247.567 446.176,247.567C446.176,247.567 474.207,226.075 477.008,220.47C479.812,214.864 475.703,207.192 462.812,199.345C449.918,191.497 419.266,161.602 412.727,157.677C406.188,153.755 392.551,153.388 392.551,153.388C392.551,153.388 415.164,132.263 423.387,120.864C431.609,109.466 450.473,96.954 445.051,74.157C439.633,51.356 413.289,42.567 403.383,37.145C393.48,31.727 374.98,20.899 352.746,18.845C330.508,16.79 306.035,28.177 299.121,26.684C292.207,25.188 289.023,26.317 287.34,20.337C285.656,14.356 277.438,2.395 267.719,0.899C266.352,0.688 264.93,0.602 263.488,0.61C263.262,0.587 263.035,0.571 262.797,0.563ZM337.922,79.45C346.379,79.45 354.824,83.149 354.824,83.149L327.875,108.516L324.707,79.974C324.707,79.974 329.465,79.45 337.922,79.45ZM119.73,80.317L138.414,80.872L132.992,89.474L119.73,80.317ZM364.516,127.224C364.516,127.224 357.605,147.399 357.047,154.13C357.043,154.157 357.035,154.181 357.035,154.208C356.598,152.184 355.832,149.665 354.434,146.095C350.695,136.563 348.641,133.759 348.641,133.759L364.516,127.224Z" style="fill:rgb(253,75,45);fill-rule:nonzero;"/>
    </g>
</svg>
